{
    "asset" : {
        "version" : "2.0",
        "generator" : "Khronos glTF Blender I/O v0.9.6"
    },
    "scene" : 0,
    "scenes" : [
        {
            "nodes" : [
                0
            ],
            "name" : "Scene"
        }
    ],
    "nodes" : [
        {
            "rotation" : [
                0.7071068286895752,
                0,
                0,
                0.7071067094802856
            ],
            "scale" : [
                0.2934736907482147,
                0.08149164170026779,
                0.028852563351392746
            ],
            "mesh" : 0,
            "name" : "Cube",
            "translation" : [
                0.16829277575016022,
                1.0782067775726318,
                -0.0006269228179007769
            ]
        }
    ],
    "materials" : [
        {
            "pbrMetallicRoughness" : {
                "baseColorFactor" : [
                    1,
                    0.6375970244407654,
                    0.6375970244407654,
                    1
                ],
                "metallicFactor" : 0.05000000074505806,
                "roughnessFactor" : 0.949999988079071
            },
            "name" : "Black.001"
        },
        {
            "pbrMetallicRoughness" : {
                "baseColorFactor" : [
                    1,
                    0.6375970244407654,
                    0.6444797515869141,
                    1
                ],
                "metallicFactor" : 0.05000000074505806,
                "roughnessFactor" : 0.949999988079071
            },
            "name" : "Red.001"
        },
        {
            "pbrMetallicRoughness" : {
                "baseColorFactor" : [
                    1,
                    1,
                    1,
                    1
                ],
                "metallicFactor" : 0.009999999776482582,
                "roughnessFactor" : 1
            },
            "name" : "White.001"
        }
    ],
    "meshes" : [
        {
            "primitives" : [
                {
                    "attributes" : {
                        "NORMAL" : 0,
                        "POSITION" : 1
                    },
                    "indices" : 2,
                    "material" : 0
                },
                {
                    "attributes" : {
                        "NORMAL" : 3,
                        "POSITION" : 4
                    },
                    "indices" : 5,
                    "material" : 1
                },
                {
                    "attributes" : {
                        "NORMAL" : 6,
                        "POSITION" : 7
                    },
                    "indices" : 8,
                    "material" : 2
                }
            ],
            "name" : "Cube.002"
        }
    ],
    "accessors" : [
        {
            "type" : "VEC3",
            "bufferView" : 0,
            "componentType" : 5126,
            "count" : 124
        },
        {
            "bufferView" : 1,
            "max" : [
                -0.3654232323169708,
                1.0646153688430786,
                8.369142532348633
            ],
            "min" : [
                -0.8341703414916992,
                -0.5220448970794678,
                3.7605948448181152
            ],
            "type" : "VEC3",
            "componentType" : 5126,
            "count" : 124
        },
        {
            "type" : "SCALAR",
            "bufferView" : 2,
            "componentType" : 5123,
            "count" : 345
        },
        {
            "type" : "VEC3",
            "bufferView" : 3,
            "componentType" : 5126,
            "count" : 4391
        },
        {
            "bufferView" : 4,
            "max" : [
                0.44878703355789185,
                3.689054250717163,
                61.63079833984375
            ],
            "min" : [
                -2.2733514308929443,
                -3.673664093017578,
                -5.131525039672852
            ],
            "type" : "VEC3",
            "componentType" : 5126,
            "count" : 4391
        },
        {
            "type" : "SCALAR",
            "bufferView" : 5,
            "componentType" : 5123,
            "count" : 6504
        },
        {
            "type" : "VEC3",
            "bufferView" : 6,
            "componentType" : 5126,
            "count" : 437
        },
        {
            "bufferView" : 7,
            "max" : [
                0.49551206827163696,
                3.85732364654541,
                42.78474807739258
            ],
            "min" : [
                -1.6424143314361572,
                -3.8419349193573,
                1.2582917213439941
            ],
            "type" : "VEC3",
            "componentType" : 5126,
            "count" : 437
        },
        {
            "type" : "SCALAR",
            "bufferView" : 8,
            "componentType" : 5123,
            "count" : 1173
        }
    ],
    "bufferViews" : [
        {
            "byteOffset" : 0,
            "byteLength" : 1488,
            "buffer" : 0
        },
        {
            "byteOffset" : 1488,
            "byteLength" : 1488,
            "buffer" : 0
        },
        {
            "byteOffset" : 2976,
            "byteLength" : 690,
            "buffer" : 0
        },
        {
            "byteOffset" : 3668,
            "byteLength" : 52692,
            "buffer" : 0
        },
        {
            "byteOffset" : 56360,
            "byteLength" : 52692,
            "buffer" : 0
        },
        {
            "byteOffset" : 109052,
            "byteLength" : 13008,
            "buffer" : 0
        },
        {
            "byteOffset" : 122060,
            "byteLength" : 5244,
            "buffer" : 0
        },
        {
            "byteOffset" : 127304,
            "byteLength" : 5244,
            "buffer" : 0
        },
        {
            "byteOffset" : 132548,
            "byteLength" : 2346,
            "buffer" : 0
        }
    ],
    "buffers" : [
        {
            "byteLength" : 134896,
            "uri" : "data:application/octet-stream;base64,"
        }
    ]
}
