{
    "asset" : {
        "generator" : "Khronos glTF Blender I/O v0.9.11",
        "version" : "2.0"
    },
    "scene" : 0,
    "scenes" : [
        {
            "name" : "Scene",
            "nodes" : [
                0
            ]
        }
    ],
    "nodes" : [
        {
            "mesh" : 0,
            "name" : "Cylinder",
            "scale" : [
                0.30000001192092896,
                0.699999988079071,
                0.30000001192092896
            ]
        }
    ],
    "materials" : [
        {
            "doubleSided" : true,
            "name" : "White",
            "pbrMetallicRoughness" : {
                "baseColorFactor" : [
                    1,
                    0.9114075899124146,
                    0.7874122262001038,
                    1
                ],
                "metallicFactor" : 0,
                "roughnessFactor" : 1
            }
        },
        {
            "doubleSided" : true,
            "name" : "Black",
            "pbrMetallicRoughness" : {
                "baseColorFactor" : [
                    0.38437217473983765,
                    0.38437217473983765,
                    0.38437217473983765,
                    1
                ],
                "metallicFactor" : 0,
                "roughnessFactor" : 1
            }
        },
        {
            "doubleSided" : true,
            "name" : "Red",
            "pbrMetallicRoughness" : {
                "baseColorFactor" : [
                    1,
                    3.440669024712406e-05,
                    0.020512288436293602,
                    1
                ],
                "metallicFactor" : 0,
                "roughnessFactor" : 1
            }
        }
    ],
    "meshes" : [
        {
            "name" : "Cylinder",
            "primitives" : [
                {
                    "attributes" : {
                        "POSITION" : 0,
                        "NORMAL" : 1
                    },
                    "indices" : 2,
                    "material" : 0
                },
                {
                    "attributes" : {
                        "POSITION" : 3,
                        "NORMAL" : 4
                    },
                    "indices" : 5,
                    "material" : 1
                },
                {
                    "attributes" : {
                        "POSITION" : 6,
                        "NORMAL" : 7
                    },
                    "indices" : 8,
                    "material" : 2
                }
            ]
        }
    ],
    "accessors" : [
        {
            "bufferView" : 0,
            "componentType" : 5126,
            "count" : 496,
            "max" : [
                0.555570125579834,
                1.3963878154754639,
                0.9999998807907104
            ],
            "min" : [
                -0.555569052696228,
                -0.35411393642425537,
                -0.9999999403953552
            ],
            "type" : "VEC3"
        },
        {
            "bufferView" : 1,
            "componentType" : 5126,
            "count" : 496,
            "type" : "VEC3"
        },
        {
            "bufferView" : 2,
            "componentType" : 5123,
            "count" : 1404,
            "type" : "SCALAR"
        },
        {
            "bufferView" : 3,
            "componentType" : 5126,
            "count" : 361,
            "max" : [
                1.2866690158843994,
                1.6408915519714355,
                0.17233774065971375
            ],
            "min" : [
                -0.4112045466899872,
                1.2372167110443115,
                -0.24565815925598145
            ],
            "type" : "VEC3"
        },
        {
            "bufferView" : 4,
            "componentType" : 5126,
            "count" : 361,
            "type" : "VEC3"
        },
        {
            "bufferView" : 5,
            "componentType" : 5123,
            "count" : 840,
            "type" : "SCALAR"
        },
        {
            "bufferView" : 6,
            "componentType" : 5126,
            "count" : 739,
            "max" : [
                0.9999999403953552,
                1.3743001222610474,
                0.9999998807907104
            ],
            "min" : [
                -0.9999999403953552,
                -0.9999994039535522,
                -0.9999999403953552
            ],
            "type" : "VEC3"
        },
        {
            "bufferView" : 7,
            "componentType" : 5126,
            "count" : 739,
            "type" : "VEC3"
        },
        {
            "bufferView" : 8,
            "componentType" : 5123,
            "count" : 3630,
            "type" : "SCALAR"
        }
    ],
    "bufferViews" : [
        {
            "buffer" : 0,
            "byteLength" : 5952,
            "byteOffset" : 0
        },
        {
            "buffer" : 0,
            "byteLength" : 5952,
            "byteOffset" : 5952
        },
        {
            "buffer" : 0,
            "byteLength" : 2808,
            "byteOffset" : 11904
        },
        {
            "buffer" : 0,
            "byteLength" : 4332,
            "byteOffset" : 14712
        },
        {
            "buffer" : 0,
            "byteLength" : 4332,
            "byteOffset" : 19044
        },
        {
            "buffer" : 0,
            "byteLength" : 1680,
            "byteOffset" : 23376
        },
        {
            "buffer" : 0,
            "byteLength" : 8868,
            "byteOffset" : 25056
        },
        {
            "buffer" : 0,
            "byteLength" : 8868,
            "byteOffset" : 33924
        },
        {
            "buffer" : 0,
            "byteLength" : 7260,
            "byteOffset" : 42792
        }
    ],
    "buffers" : [
        {
            "byteLength" : 50052,
            "uri" : "data:application/octet-stream;base64,"
        }
    ]
}
